<svg width="55" height="13" viewBox="0 0 55 13" fill="none" xmlns="http://www.w3.org/2000/svg">
<path d="M2.50781 12H0.695312C0.653646 12 0.632812 11.974 0.632812 11.9219L0.664062 0.929688C0.664062 0.888021 0.684896 0.867188 0.726562 0.867188H3.96094C4.53906 0.867188 5.07031 1.00781 5.55469 1.28906C6.03906 1.57031 6.42448 1.94792 6.71094 2.42188C7.0026 2.89583 7.14844 3.43229 7.14844 4.03125C7.14844 4.42188 7.08854 4.77604 6.96875 5.09375C6.84896 5.41146 6.70833 5.67969 6.54688 5.89844C6.39062 6.11719 6.2474 6.27865 6.11719 6.38281C6.69531 7.02344 6.98438 7.77604 6.98438 8.64062L7 11.9219C7 11.974 6.97396 12 6.92188 12H5.10938C5.06771 12 5.04688 11.9844 5.04688 11.9531V8.64062C5.04688 8.25521 4.91146 7.92188 4.64062 7.64062C4.36979 7.35938 4.03646 7.21875 3.64062 7.21875H2.58594L2.57031 11.9219C2.57031 11.974 2.54948 12 2.50781 12ZM3.96094 2.78125H2.58594V5.29688H3.96094C4.28906 5.29688 4.58073 5.17448 4.83594 4.92969C5.09635 4.6849 5.22656 4.38542 5.22656 4.03125C5.22656 3.69271 5.10156 3.40104 4.85156 3.15625C4.60156 2.90625 4.30469 2.78125 3.96094 2.78125ZM13.5859 12H8.41406C8.3724 12 8.35156 11.974 8.35156 11.9219L8.36719 0.929688C8.36719 0.888021 8.38802 0.867188 8.42969 0.867188H13.5703C13.612 0.867188 13.6328 0.893229 13.6328 0.945312V2.73438C13.6328 2.77604 13.612 2.79688 13.5703 2.79688H10.2891V5.29688H13.5703C13.612 5.29688 13.6328 5.31771 13.6328 5.35938L13.6484 7.17188C13.6484 7.21354 13.6276 7.23438 13.5859 7.23438H10.2891V10.0312H13.5859C13.6276 10.0312 13.6484 10.0573 13.6484 10.1094V11.9375C13.6484 11.9792 13.6276 12 13.5859 12ZM18.4766 12H16.5391C16.4922 12 16.4661 11.974 16.4609 11.9219L14.25 0.929688C14.2396 0.888021 14.2604 0.867188 14.3125 0.867188H16.125C16.1667 0.867188 16.1927 0.888021 16.2031 0.929688L17.5156 8.25781L18.7969 0.929688C18.8073 0.888021 18.8333 0.867188 18.875 0.867188H20.6641C20.7214 0.867188 20.7422 0.888021 20.7266 0.929688L18.5547 11.9219C18.5495 11.974 18.5234 12 18.4766 12ZM26.8984 12H21.7266C21.6849 12 21.6641 11.974 21.6641 11.9219L21.6797 0.929688C21.6797 0.888021 21.7005 0.867188 21.7422 0.867188H26.8828C26.9245 0.867188 26.9453 0.893229 26.9453 0.945312V2.73438C26.9453 2.77604 26.9245 2.79688 26.8828 2.79688H23.6016V5.29688H26.8828C26.9245 5.29688 26.9453 5.31771 26.9453 5.35938L26.9609 7.17188C26.9609 7.21354 26.9401 7.23438 26.8984 7.23438H23.6016V10.0312H26.8984C26.9401 10.0312 26.9609 10.0573 26.9609 10.1094V11.9375C26.9609 11.9792 26.9401 12 26.8984 12ZM27.8438 11.9219L29.8281 0.929688C29.8385 0.888021 29.8646 0.867188 29.9062 0.867188H32.2266C32.2682 0.867188 32.2943 0.888021 32.3047 0.929688L34.2109 11.9219C34.2161 11.974 34.1953 12 34.1484 12H32.375C32.3229 12 32.2943 11.974 32.2891 11.9219L32.1172 10.75H29.9375L29.7656 11.9219C29.7604 11.974 29.7344 12 29.6875 12H27.9062C27.8646 12 27.8438 11.974 27.8438 11.9219ZM30.9766 4.54688L30.2578 9.03906H31.7969L31.1406 4.54688L31.0469 3.95312L30.9766 4.54688ZM40.4453 12H35.2734C35.2318 12 35.2109 11.974 35.2109 11.9219L35.2266 0.945312C35.2266 0.893229 35.2526 0.867188 35.3047 0.867188H37.0859C37.138 0.867188 37.1641 0.893229 37.1641 0.945312L37.1484 10.0312H40.4453C40.4974 10.0312 40.5234 10.0573 40.5234 10.1094V11.9219C40.5234 11.974 40.4974 12 40.4453 12ZM44.3203 12.1797C43.763 12.1797 43.2448 12.0312 42.7656 11.7344C42.2917 11.4427 41.9115 11.0521 41.625 10.5625C41.3438 10.0677 41.2031 9.52865 41.2031 8.94531V8.22656C41.2031 8.16927 41.224 8.14062 41.2656 8.14062H43.0625C43.1146 8.14062 43.1406 8.16927 43.1406 8.22656V8.94531C43.1406 9.29427 43.2526 9.59635 43.4766 9.85156C43.7005 10.1016 43.9818 10.2266 44.3203 10.2266C44.6953 10.2266 44.9896 10.0964 45.2031 9.83594C45.4167 9.57031 45.5234 9.27344 45.5234 8.94531V8.51562C45.5234 8.18229 45.4193 7.88281 45.2109 7.61719C45.0026 7.35156 44.7396 7.21875 44.4219 7.21875H43.7969C43.7448 7.21875 43.7188 7.1901 43.7188 7.13281L43.7344 5.34375C43.7344 5.30208 43.7552 5.28125 43.7969 5.28125H44.4219C44.7083 5.28125 44.9635 5.16927 45.1875 4.94531C45.4115 4.72135 45.5234 4.42708 45.5234 4.0625V3.84375C45.5234 3.5 45.4089 3.20833 45.1797 2.96875C44.9505 2.72917 44.6641 2.60938 44.3203 2.60938C43.9922 2.60938 43.7135 2.72917 43.4844 2.96875C43.2552 3.20833 43.1406 3.5 43.1406 3.84375V4.60938C43.1406 4.66146 43.1198 4.6875 43.0781 4.6875H41.2812C41.2396 4.6875 41.2188 4.66146 41.2188 4.60938V3.75781C41.2188 3.17448 41.3672 2.65365 41.6641 2.19531C41.9557 1.73698 42.3385 1.3724 42.8125 1.10156C43.2865 0.825521 43.7891 0.6875 44.3203 0.6875C44.8984 0.6875 45.4245 0.828125 45.8984 1.10938C46.3724 1.39583 46.7474 1.77344 47.0234 2.24219C47.3047 2.71094 47.4453 3.22656 47.4453 3.78906V4.04688C47.4453 4.51562 47.3672 4.92188 47.2109 5.26562C47.0547 5.60417 46.8385 5.92969 46.5625 6.24219C46.8385 6.5599 47.0573 6.90885 47.2188 7.28906C47.3802 7.66927 47.4609 8.0599 47.4609 8.46094V8.94531C47.4609 9.53906 47.3203 10.0833 47.0391 10.5781C46.7526 11.0677 46.3724 11.4583 45.8984 11.75C45.4245 12.0365 44.8984 12.1797 44.3203 12.1797ZM51.5625 11.9844L48.6953 12C48.6432 12 48.6172 11.974 48.6172 11.9219L48.6484 0.929688C48.6484 0.888021 48.6693 0.867188 48.7109 0.867188L51.7031 0.851562C52.2969 0.835938 52.8333 0.971354 53.3125 1.25781C53.7969 1.54427 54.1823 1.93229 54.4688 2.42188C54.7604 2.90625 54.9062 3.44271 54.9062 4.03125V8.625C54.9062 9.23958 54.7578 9.80208 54.4609 10.3125C54.1589 10.8177 53.7578 11.2214 53.2578 11.5234C52.7578 11.8203 52.1927 11.974 51.5625 11.9844ZM51.7031 2.76562L50.5859 2.78125L50.5703 10.0312H51.5625C51.9583 10.0312 52.2917 9.89323 52.5625 9.61719C52.8333 9.34115 52.9688 9.01042 52.9688 8.625V4.01562C52.9688 3.67708 52.8438 3.38281 52.5938 3.13281C52.3438 2.8776 52.0469 2.75521 51.7031 2.76562Z" fill="white"/>
</svg>
