<svg width="36" height="13" viewBox="0 0 36 13" fill="none" xmlns="http://www.w3.org/2000/svg">
<path d="M3.35156 12.1562C2.78385 12.1562 2.26042 12.0104 1.78125 11.7188C1.30729 11.4271 0.927083 11.0391 0.640625 10.5547C0.359375 10.0651 0.21875 9.52865 0.21875 8.94531V8.21094C0.21875 8.15365 0.244792 8.125 0.296875 8.125H2.09375C2.13542 8.125 2.15625 8.15365 2.15625 8.21094V8.94531C2.15625 9.29427 2.27344 9.59635 2.50781 9.85156C2.74219 10.1016 3.02344 10.2266 3.35156 10.2266C3.6849 10.2266 3.96875 10.099 4.20312 9.84375C4.4375 9.58333 4.55469 9.28385 4.55469 8.94531C4.55469 8.55469 4.29948 8.21354 3.78906 7.92188C3.70573 7.86979 3.59635 7.80729 3.46094 7.73438C3.33073 7.65625 3.17448 7.56771 2.99219 7.46875C2.8099 7.36979 2.63281 7.27344 2.46094 7.17969C2.28906 7.08073 2.1224 6.98698 1.96094 6.89844C1.3776 6.55469 0.942708 6.125 0.65625 5.60938C0.375 5.08854 0.234375 4.50521 0.234375 3.85938C0.234375 3.26562 0.380208 2.72917 0.671875 2.25C0.963542 1.77604 1.34375 1.40104 1.8125 1.125C2.28646 0.84375 2.79948 0.703125 3.35156 0.703125C3.91927 0.703125 4.4401 0.84375 4.91406 1.125C5.38802 1.41146 5.76562 1.79167 6.04688 2.26562C6.33333 2.73958 6.47656 3.27083 6.47656 3.85938V5.17188C6.47656 5.21354 6.45573 5.23438 6.41406 5.23438H4.61719C4.57552 5.23438 4.55469 5.21354 4.55469 5.17188L4.53906 3.85938C4.53906 3.48438 4.42188 3.17969 4.1875 2.94531C3.95312 2.71094 3.67448 2.59375 3.35156 2.59375C3.02344 2.59375 2.74219 2.71875 2.50781 2.96875C2.27344 3.21875 2.15625 3.51562 2.15625 3.85938C2.15625 4.20833 2.22917 4.5 2.375 4.73438C2.52604 4.96875 2.79948 5.19271 3.19531 5.40625C3.23698 5.42708 3.33333 5.47917 3.48438 5.5625C3.63542 5.64583 3.80208 5.73958 3.98438 5.84375C4.17188 5.94271 4.34115 6.03385 4.49219 6.11719C4.64323 6.19531 4.73438 6.24219 4.76562 6.25781C5.29688 6.55469 5.71615 6.91927 6.02344 7.35156C6.33594 7.78385 6.49219 8.3151 6.49219 8.94531C6.49219 9.55469 6.35156 10.1016 6.07031 10.5859C5.78385 11.0703 5.40365 11.4531 4.92969 11.7344C4.45573 12.0156 3.92969 12.1562 3.35156 12.1562ZM10.5625 12.1562C9.99479 12.1562 9.47135 12.0104 8.99219 11.7188C8.51823 11.4271 8.13542 11.0391 7.84375 10.5547C7.55729 10.0651 7.41406 9.52865 7.41406 8.94531L7.42969 3.875C7.42969 3.28125 7.57292 2.7474 7.85938 2.27344C8.14062 1.79427 8.52083 1.41146 9 1.125C9.47917 0.833333 10 0.6875 10.5625 0.6875C11.1458 0.6875 11.6693 0.830729 12.1328 1.11719C12.6016 1.40365 12.9766 1.78906 13.2578 2.27344C13.5443 2.7526 13.6875 3.28646 13.6875 3.875L13.7031 8.94531C13.7031 9.52865 13.5625 10.0625 13.2812 10.5469C12.9948 11.0365 12.6146 11.4271 12.1406 11.7188C11.6667 12.0104 11.1406 12.1562 10.5625 12.1562ZM10.5625 10.2266C10.8854 10.2266 11.1667 10.0964 11.4062 9.83594C11.6458 9.57031 11.7656 9.27344 11.7656 8.94531L11.75 3.875C11.75 3.52083 11.638 3.22135 11.4141 2.97656C11.1901 2.73177 10.9062 2.60938 10.5625 2.60938C10.2344 2.60938 9.95312 2.72917 9.71875 2.96875C9.48438 3.20833 9.36719 3.51042 9.36719 3.875V8.94531C9.36719 9.29427 9.48438 9.59635 9.71875 9.85156C9.95312 10.1016 10.2344 10.2266 10.5625 10.2266ZM17.8438 12H14.9766C14.9349 12 14.9141 11.974 14.9141 11.9219L14.9453 0.929688C14.9453 0.888021 14.9661 0.867188 15.0078 0.867188H18.0859C18.6849 0.867188 19.2292 1.01302 19.7188 1.30469C20.1979 1.59635 20.5755 1.98438 20.8516 2.46875C21.1276 2.94792 21.2656 3.46875 21.2656 4.03125C21.2656 4.48958 21.1615 4.91667 20.9531 5.3125C20.7448 5.70833 20.4974 6.02865 20.2109 6.27344C20.5182 6.58073 20.7578 6.9375 20.9297 7.34375C21.1016 7.75 21.1875 8.17708 21.1875 8.625C21.1875 9.24479 21.0391 9.8099 20.7422 10.3203C20.4401 10.8307 20.0365 11.2396 19.5312 11.5469C19.026 11.849 18.4635 12 17.8438 12ZM18.0859 2.76562H16.8672V5.28125H18.0859C18.4557 5.28125 18.7552 5.15104 18.9844 4.89062C19.2135 4.625 19.3281 4.33854 19.3281 4.03125C19.3281 3.69271 19.2057 3.39844 18.9609 3.14844C18.7161 2.89323 18.4245 2.76562 18.0859 2.76562ZM17.8438 7.21875H16.8672L16.8516 10.0469H17.8438C18.2292 10.0469 18.5599 9.90625 18.8359 9.625C19.112 9.34375 19.25 9.01042 19.25 8.625C19.25 8.23958 19.112 7.90885 18.8359 7.63281C18.5599 7.35677 18.2292 7.21875 17.8438 7.21875ZM24.2109 12H22.3984C22.3568 12 22.3359 11.974 22.3359 11.9219L22.3672 0.929688C22.3672 0.888021 22.388 0.867188 22.4297 0.867188H25.6641C26.2422 0.867188 26.7734 1.00781 27.2578 1.28906C27.7422 1.57031 28.1276 1.94792 28.4141 2.42188C28.7057 2.89583 28.8516 3.43229 28.8516 4.03125C28.8516 4.42188 28.7917 4.77604 28.6719 5.09375C28.5521 5.41146 28.4115 5.67969 28.25 5.89844C28.0938 6.11719 27.9505 6.27865 27.8203 6.38281C28.3984 7.02344 28.6875 7.77604 28.6875 8.64062L28.7031 11.9219C28.7031 11.974 28.6771 12 28.625 12H26.8125C26.7708 12 26.75 11.9844 26.75 11.9531V8.64062C26.75 8.25521 26.6146 7.92188 26.3438 7.64062C26.0729 7.35938 25.7396 7.21875 25.3438 7.21875H24.2891L24.2734 11.9219C24.2734 11.974 24.2526 12 24.2109 12ZM25.6641 2.78125H24.2891V5.29688H25.6641C25.9922 5.29688 26.2839 5.17448 26.5391 4.92969C26.7995 4.6849 26.9297 4.38542 26.9297 4.03125C26.9297 3.69271 26.8047 3.40104 26.5547 3.15625C26.3047 2.90625 26.0078 2.78125 25.6641 2.78125ZM35.2891 12H30.1172C30.0755 12 30.0547 11.974 30.0547 11.9219L30.0703 0.929688C30.0703 0.888021 30.0911 0.867188 30.1328 0.867188H35.2734C35.3151 0.867188 35.3359 0.893229 35.3359 0.945312V2.73438C35.3359 2.77604 35.3151 2.79688 35.2734 2.79688H31.9922V5.29688H35.2734C35.3151 5.29688 35.3359 5.31771 35.3359 5.35938L35.3516 7.17188C35.3516 7.21354 35.3307 7.23438 35.2891 7.23438H31.9922V10.0312H35.2891C35.3307 10.0312 35.3516 10.0573 35.3516 10.1094V11.9375C35.3516 11.9792 35.3307 12 35.2891 12Z" fill="white"/>
</svg>
